<svg xmlns="http://www.w3.org/2000/svg" viewBox="0 0 197.661 22.054" preserveAspectRatio="xMidYMid meet">
  <g id="Group_1" data-name="Group 1" transform="translate(-8587.613 -3570.145)">
    <path id="Path_14" data-name="Path 14" d="M8587.613,3581.345h11.192v2.81h-8.17v3.4h6.8v2.739h-6.8v6.494h-3.022Z"
          transform="translate(0 -9.878)" fill="#757474"/>
    <path id="Path_15" data-name="Path 15" d="M8697.213,3585.451c0-4.132,2.361-6.706,6.729-6.706s6.776,2.574,6.776,6.706v9.043H8707.7v-4.628h-7.533v4.628h-2.951Zm10.484,1.676v-1.676c0-2.479-1.229-3.9-3.779-3.9-2.525,0-3.754,1.417-3.754,3.9v1.676Z"
          transform="translate(-96.66 -7.585)" fill="#757474"/>
    <path id="Path_16" data-name="Path 16" d="M8828.811,3586.773a8.26,8.26,0,0,1,16.174-2.125H8841.8a4.912,4.912,0,0,0-4.771-3.093,5.23,5.23,0,1,0,4.771,7.344h3.187a8.26,8.26,0,0,1-16.174-2.125Z"
          transform="translate(-212.72 -7.585)" fill="#757474"/>
    <path id="Path_17" data-name="Path 17" d="M8985.608,3581.345h11.382v2.81h-8.359v3.448h6.99v2.692h-6.99V3594h8.359v2.787h-11.382Z"
          transform="translate(-351.006 -9.878)" fill="#757474"/>
    <path id="Path_18" data-name="Path 18" d="M9151,3590.032h2.951c.024,1.228.945,2.055,2.787,2.055,1.865,0,2.786-.827,2.786-2.055,0-1.346-1.44-1.605-3.116-1.912-2.338-.425-5.1-.921-5.1-4.51,0-2.857,2.173-4.864,5.455-4.864,3.188,0,5.336,1.913,5.455,4.746h-2.857c-.023-1.181-.9-2.031-2.574-2.031-1.7,0-2.55.921-2.55,2.054,0,1.346,1.44,1.606,3.116,1.913,2.338.425,5.124.921,5.124,4.51,0,3-2.29,4.864-5.737,4.864C9153.317,3594.8,9151.074,3592.984,9151,3590.032Z"
          transform="translate(-496.874 -7.585)" fill="#464545"/>
    <path id="Path_19" data-name="Path 19" d="M9268.4,3581.345h3.022v6.21h7.391v-6.21h3.022v15.443h-3.022v-6.447h-7.391v6.447H9268.4Z"
          transform="translate(-600.412 -9.878)" fill="#464545"/>
    <path id="Path_20" data-name="Path 20" d="M9409.2,3581.345h3.022v15.443H9409.2Z"
          transform="translate(-724.585 -9.878)" fill="#464545"/>
    <path id="Path_21" data-name="Path 21" d="M9461.8,3581.345h11.381v2.81h-8.357v3.448h6.988v2.692h-6.988V3594h8.357v2.787H9461.8Z"
          transform="translate(-770.975 -9.878)" fill="#464545"/>
    <path id="Path_22" data-name="Path 22" d="M9580.795,3581.345h3.022V3594h8.075v2.787h-11.1Z"
          transform="translate(-875.922 -9.878)" fill="#464545"/>
    <path id="Path_23" data-name="Path 23" d="M9693.393,3581.345h5.479c5.406,0,8.24,3.093,8.24,7.721s-2.834,7.722-8.24,7.722h-5.479Zm5.479,12.656c3.564,0,5.171-1.936,5.171-4.935s-1.606-4.911-5.171-4.911h-2.456V3594Z"
          transform="translate(-975.225 -9.878)" fill="#464545"/>
    <path id="Path_24" data-name="Path 24" d="M9883.391,3570.145H9884v16.765h-.613Z"
          transform="translate(-1142.792)" fill="#00a3c4"/>
    <path id="Path_25" data-name="Path 25" d="M9913.187,3578.205a.661.661,0,1,1,.661.661A.646.646,0,0,1,9913.187,3578.205Zm.354,3.565h.613v11.665h-.613Z"
          transform="translate(-1169.069 -6.525)" fill="#00a3c4"/>
    <path id="Path_26" data-name="Path 26" d="M9948.186,3570.145h.613v7.91a5.291,5.291,0,0,1,5.171-3.117c3.424,0,5.738,2.007,5.738,5.856v6.116h-.614v-6.116c0-3.376-2.031-5.289-5.147-5.289-3.093,0-5.147,1.936-5.147,5.289v6.116h-.613Z"
          transform="translate(-1199.936)" fill="#00a3c4"/>
    <path id="Path_27" data-name="Path 27" d="M10061.949,3624.439h.638c.8,2.1,2.81,3,5.171,3,3.164,0,5.549-1.653,5.549-5.667V3619.5a5.857,5.857,0,0,1-5.666,3.518,6.141,6.141,0,1,1,6.28-6.092v4.793c0,4.51-2.668,6.281-6.187,6.281C10065.019,3628,10062.823,3626.919,10061.949,3624.439Zm11.357-7.556a5.644,5.644,0,1,0-5.643,5.573A5.387,5.387,0,0,0,10073.307,3616.883Z"
          transform="translate(-1299.769 -35.806)" fill="#00a3c4"/>
    <path id="Path_28" data-name="Path 28" d="M10187.182,3589.986v-11.641h.614v4.132h7.556v.543h-7.556v6.966c0,2.574,1.487,3.9,3.8,3.9s3.826-1.275,3.826-3.9v-.189h.566v.189c0,2.952-1.771,4.463-4.393,4.463A4.072,4.072,0,0,1,10187.182,3589.986Z"
          transform="translate(-1410.715 -7.232)" fill="#00a3c4"/>
  </g>
</svg>
