<svg xmlns="http://www.w3.org/2000/svg" viewBox="0 0 393.554 32" preserveAspectRatio="xMidYMid meet">
  <g id="Group_1" data-name="Group 1" transform="translate(-8841.807 -4355.213)">
    <path id="Path_32" data-name="Path 32" d="M8841.807,4357.813h22.307v5.6h-16.282v6.776h13.553v5.459h-13.553v12.941h-6.024Z" transform="translate(0 -1.988)" fill="#fff"/>
    <path id="Path_33" data-name="Path 33" d="M8951.406,4368.578c0-8.235,4.706-13.365,13.412-13.365s13.506,5.129,13.506,13.365V4386.6H8972.3v-9.224h-15.012v9.224h-5.883Zm20.895,3.341v-3.341c0-4.941-2.447-7.765-7.529-7.765-5.036,0-7.482,2.824-7.482,7.765v3.341Z" transform="translate(-83.811)" fill="#fff"/>
    <path id="Path_34" data-name="Path 34" d="M9083,4371.212c0-9.223,6.776-16,16.377-16,8.047,0,14.117,4.753,15.858,11.765h-6.353a9.789,9.789,0,0,0-9.506-6.165c-6.118,0-10.259,4.376-10.259,10.4s4.141,10.448,10.259,10.448a9.826,9.826,0,0,0,9.506-6.212h6.353c-1.741,7.012-7.812,11.765-15.858,11.765C9089.78,4387.213,9083,4380.436,9083,4371.212Z" transform="translate(-184.444)" fill="#fff"/>
    <path id="Path_35" data-name="Path 35" d="M9239.8,4357.813h22.683v5.6h-16.658v6.871h13.929v5.365h-13.929v7.388h16.658v5.553H9239.8Z" transform="translate(-304.348 -1.988)" fill="#fff"/>
    <path id="Path_36" data-name="Path 36" d="M9405.2,4377.707h5.883c.047,2.447,1.883,4.094,5.553,4.094,3.719,0,5.554-1.647,5.554-4.094,0-2.683-2.871-3.2-6.212-3.812-4.658-.847-10.165-1.835-10.165-8.988,0-5.694,4.329-9.694,10.87-9.694,6.354,0,10.636,3.812,10.871,9.458h-5.694c-.047-2.353-1.788-4.047-5.129-4.047-3.39,0-5.083,1.835-5.083,4.094,0,2.683,2.871,3.2,6.211,3.813,4.66.847,10.213,1.835,10.213,8.988,0,5.977-4.564,9.694-11.436,9.694C9409.81,4387.213,9405.34,4383.589,9405.2,4377.707Z" transform="translate(-430.826)" fill="#fff"/>
    <path id="Path_37" data-name="Path 37" d="M9522.6,4357.813h6.024v12.376h14.729v-12.376h6.022v30.777h-6.022v-12.847H9528.62v12.847H9522.6Z" transform="translate(-520.601 -1.988)" fill="#fff"/>
    <path id="Path_38" data-name="Path 38" d="M9663.394,4357.813h6.023v30.777h-6.023Z" transform="translate(-628.269 -1.988)" fill="#fff"/>
    <path id="Path_39" data-name="Path 39" d="M9715.992,4357.813h22.683v5.6h-16.658v6.871h13.929v5.365h-13.929v7.388h16.658v5.553h-22.683Z" transform="translate(-668.491 -1.988)" fill="#fff"/>
    <path id="Path_40" data-name="Path 40" d="M9834.989,4357.813h6.023v25.224h16.095v5.553h-22.118Z" transform="translate(-759.489 -1.988)" fill="#fff"/>
    <path id="Path_41" data-name="Path 41" d="M9947.587,4357.813H9958.5c10.776,0,16.424,6.165,16.424,15.388s-5.647,15.389-16.424,15.389h-10.918Zm10.918,25.224c7.106,0,10.306-3.859,10.306-9.835s-3.2-9.788-10.306-9.788h-4.895v19.624Z" transform="translate(-845.592 -1.988)" fill="#fff"/>
    <path id="Path_42" data-name="Path 42" d="M10137.184,4357.813h12.564c8,0,11.578,4.424,11.578,10.447s-3.577,10.447-11.578,10.447h-6.54v9.883h-6.024Zm12.659,15.341c4,0,5.364-2.071,5.364-4.894,0-2.777-1.364-4.847-5.364-4.847h-6.635v9.741Z" transform="translate(-990.577 -1.988)" fill="#00a3c4"/>
    <path id="Path_43" data-name="Path 43" d="M10257.383,4357.813h12.894c7.813,0,11.248,4.282,11.248,10.165,0,4.847-2.307,8.188-6.447,9.553l7.575,11.059h-7.152l-6.541-10.4h-5.553v10.4h-6.023Zm12.987,14.776c3.813,0,5.083-1.977,5.083-4.611s-1.271-4.565-5.083-4.565h-6.964v9.176Z" transform="translate(-1082.494 -1.988)" fill="#00a3c4"/>
    <path id="Path_44" data-name="Path 44" d="M10375.182,4371.212c0-9.223,6.776-16,16.377-16s16.376,6.776,16.376,16-6.776,16-16.376,16S10375.182,4380.436,10375.182,4371.212Zm26.635,0c0-6.023-4.141-10.4-10.258-10.4s-10.26,4.376-10.26,10.4,4.142,10.448,10.26,10.448S10401.816,4377.236,10401.816,4371.212Z" transform="translate(-1172.575)" fill="#00a3c4"/>
  </g>
</svg>
