<svg xmlns="http://www.w3.org/2000/svg" viewBox="0 0 445.637 49.721" preserveAspectRatio="xMidYMid meet">
  <g id="Group_1" data-name="Group 1" transform="translate(0)">
    <path id="Path_14" data-name="Path 14" d="M8587.611,3581.345h25.234v6.335h-18.42v7.666h15.334v6.176h-15.334v14.64h-6.814Z" transform="translate(-8587.611 -3578.364)" fill="#fff"/>
    <path id="Path_15" data-name="Path 15" d="M8697.214,3593.864c0-9.317,5.323-15.119,15.171-15.119s15.278,5.8,15.278,15.119v20.389h-6.813v-10.434h-16.984v10.434h-6.651Zm23.636,3.779v-3.779c0-5.59-2.77-8.784-8.52-8.784-5.693,0-8.465,3.194-8.465,8.784v3.779Z" transform="translate(-8668.04 -3576.455)" fill="#fff"/>
    <path id="Path_16" data-name="Path 16" d="M8828.809,3596.845c0-10.435,7.668-18.1,18.525-18.1,9.1,0,15.972,5.376,17.939,13.309h-7.183a11.077,11.077,0,0,0-10.757-6.974c-6.919,0-11.6,4.951-11.6,11.765s4.686,11.818,11.6,11.818a11.12,11.12,0,0,0,10.757-7.027h7.183c-1.968,7.932-8.836,13.309-17.939,13.309C8836.477,3614.945,8828.809,3607.279,8828.809,3596.845Z" transform="translate(-8764.606 -3576.455)" fill="#fff"/>
    <path id="Path_17" data-name="Path 17" d="M8985.607,3581.345h25.662v6.335h-18.848v7.772h15.76v6.069h-15.76v8.357h18.848v6.283h-25.662Z" transform="translate(-8879.667 -3578.364)" fill="#fff"/>
    <path id="Path_18" data-name="Path 18" d="M9151,3604.191h6.653c.055,2.768,2.13,4.632,6.283,4.632,4.206,0,6.281-1.864,6.281-4.632,0-3.034-3.248-3.62-7.026-4.312-5.27-.958-11.5-2.076-11.5-10.168,0-6.443,4.9-10.967,12.3-10.967,7.187,0,12.031,4.312,12.3,10.7h-6.444c-.052-2.662-2.023-4.579-5.8-4.579-3.835,0-5.75,2.076-5.75,4.632,0,3.035,3.247,3.621,7.026,4.312,5.271.959,11.552,2.077,11.552,10.168,0,6.761-5.163,10.967-12.935,10.967C9156.22,3614.945,9151.163,3610.846,9151,3604.191Z" transform="translate(-9001.038 -3576.455)" fill="#fff"/>
    <path id="Path_19" data-name="Path 19" d="M9268.4,3581.345h6.815v14h16.662v-14h6.813v34.817h-6.813v-14.534h-16.662v14.534H9268.4Z" transform="translate(-9087.186 -3578.364)" fill="#fff"/>
    <path id="Path_20" data-name="Path 20" d="M9409.2,3581.345h6.814v34.817H9409.2Z" transform="translate(-9190.503 -3578.364)" fill="#fff"/>
    <path id="Path_21" data-name="Path 21" d="M9461.8,3581.345h25.659v6.335h-18.844v7.772h15.756v6.069h-15.756v8.357h18.844v6.283H9461.8Z" transform="translate(-9229.104 -3578.364)" fill="#fff"/>
    <path id="Path_22" data-name="Path 22" d="M9580.794,3581.345h6.814v28.534h18.206v6.283h-25.021Z" transform="translate(-9316.424 -3578.364)" fill="#fff"/>
    <path id="Path_23" data-name="Path 23" d="M9693.392,3581.345h12.353c12.189,0,18.578,6.974,18.578,17.408s-6.389,17.409-18.578,17.409h-12.353Zm12.353,28.534c8.036,0,11.658-4.365,11.658-11.126s-3.622-11.073-11.658-11.073h-5.538v22.2Z" transform="translate(-9399.05 -3578.364)" fill="#fff"/>
    <path id="Path_24" data-name="Path 24" d="M9883.392,3570.145h1.382v37.8h-1.382Z" transform="translate(-9538.477 -3570.145)" fill="#fff"/>
    <path id="Path_25" data-name="Path 25" d="M9913.187,3579.035a1.491,1.491,0,1,1,1.491,1.49A1.456,1.456,0,0,1,9913.187,3579.035Zm.8,8.039h1.385v26.3h-1.385Z" transform="translate(-9560.339 -3575.574)" fill="#fff"/>
    <path id="Path_26" data-name="Path 26" d="M9948.184,3570.145h1.383v17.834c2.075-4.578,6.175-7.027,11.658-7.027,7.72,0,12.938,4.525,12.938,13.2v13.789h-1.385v-13.789c0-7.612-4.58-11.925-11.6-11.925-6.975,0-11.606,4.365-11.606,11.925v13.789h-1.383Z" transform="translate(-9586.021 -3570.145)" fill="#fff"/>
    <path id="Path_27" data-name="Path 27" d="M10062.66,3641.621h1.437c1.813,4.738,6.335,6.761,11.658,6.761,7.135,0,12.51-3.727,12.51-12.776v-5.111c-2.182,5.057-6.866,7.932-12.774,7.932-8.252,0-14.106-5.856-14.106-13.842s5.854-13.841,14.161-13.841,14.1,5.75,14.1,13.948V3635.5c0,10.168-6.015,14.161-13.946,14.161C10069.58,3649.659,10064.629,3647.21,10062.66,3641.621Zm25.6-17.036c0-7.186-5.108-12.564-12.72-12.564s-12.727,5.378-12.727,12.564,5.112,12.563,12.727,12.563S10088.265,3631.772,10088.265,3624.585Z" transform="translate(-9669.089 -3599.938)" fill="#fff"/>
    <path id="Path_28" data-name="Path 28" d="M10187.181,3604.59v-26.245h1.387v9.316h17.033v1.225h-17.033v15.7c0,5.8,3.352,8.784,8.568,8.784s8.626-2.874,8.626-8.784v-.426h1.275v.426c0,6.655-3.99,10.062-9.9,10.062S10187.181,3611.244,10187.181,3604.59Z" transform="translate(-9761.4 -3576.162)" fill="#fff"/>
  </g>
</svg>
