<svg xmlns="http://www.w3.org/2000/svg" viewBox="0 0 445.554 36.228" preserveAspectRatio="xMidYMid meet">
  <g id="Group_1" data-name="Group 1" transform="translate(-8841.807 -4355.213)">
    <path id="Path_32" data-name="Path 32" d="M8841.807,4357.813h25.254v6.34h-18.434v7.672h15.344V4378h-15.344v14.651h-6.82Z" transform="translate(0 -1.907)" fill="#fff"/>
    <path id="Path_33" data-name="Path 33" d="M8951.406,4370.343c0-9.324,5.328-15.131,15.185-15.131s15.29,5.807,15.29,15.131v20.4h-6.819v-10.442h-17v10.442h-6.66Zm23.655,3.782v-3.782c0-5.594-2.771-8.792-8.524-8.792-5.7,0-8.471,3.2-8.471,8.792v3.782Z" transform="translate(-80.404 0)" fill="#fff"/>
    <path id="Path_34" data-name="Path 34" d="M9083,4373.326c0-10.442,7.672-18.114,18.541-18.114,9.11,0,15.982,5.381,17.954,13.319h-7.192a11.081,11.081,0,0,0-10.762-6.98c-6.927,0-11.614,4.955-11.614,11.774s4.688,11.828,11.614,11.828a11.124,11.124,0,0,0,10.762-7.033h7.192c-1.972,7.938-8.844,13.319-17.954,13.319C9090.675,4391.44,9083,4383.769,9083,4373.326Z" transform="translate(-176.944 0)" fill="#fff"/>
    <path id="Path_35" data-name="Path 35" d="M9239.8,4357.813h25.68v6.34h-18.859v7.778h15.77V4378h-15.77v8.364h18.859v6.287H9239.8Z" transform="translate(-291.974 -1.907)" fill="#fff"/>
    <path id="Path_36" data-name="Path 36" d="M9405.2,4380.679h6.66c.053,2.771,2.131,4.635,6.285,4.635,4.211,0,6.289-1.865,6.289-4.635,0-3.037-3.252-3.623-7.033-4.315-5.273-.958-11.508-2.078-11.508-10.176,0-6.446,4.9-10.975,12.307-10.975,7.191,0,12.041,4.315,12.307,10.708h-6.447c-.053-2.664-2.023-4.582-5.807-4.582-3.836,0-5.754,2.078-5.754,4.634,0,3.038,3.25,3.623,7.031,4.316,5.275.958,11.563,2.078,11.563,10.175,0,6.766-5.168,10.975-12.947,10.975C9410.418,4391.44,9405.357,4387.338,9405.2,4380.679Z" transform="translate(-413.31 0)" fill="#fff"/>
    <path id="Path_37" data-name="Path 37" d="M9522.595,4357.813h6.82v14.012h16.676v-14.012h6.818v34.843h-6.818v-14.544h-16.676v14.544h-6.82Z" transform="translate(-499.434 -1.907)" fill="#fff"/>
    <path id="Path_38" data-name="Path 38" d="M9663.393,4357.813h6.819v34.843h-6.819Z" transform="translate(-602.725 -1.907)" fill="#fff"/>
    <path id="Path_39" data-name="Path 39" d="M9715.992,4357.813h25.68v6.34h-18.859v7.778h15.769V4378h-15.769v8.364h18.859v6.287h-25.68Z" transform="translate(-641.313 -1.907)" fill="#fff"/>
    <path id="Path_40" data-name="Path 40" d="M9834.988,4357.813h6.819v28.556h18.222v6.287h-25.041Z" transform="translate(-728.61 -1.907)" fill="#fff"/>
    <path id="Path_41" data-name="Path 41" d="M9947.587,4357.813h12.36c12.2,0,18.594,6.979,18.594,17.421s-6.394,17.422-18.594,17.422h-12.36Zm12.36,28.556c8.045,0,11.667-4.369,11.667-11.135s-3.622-11.082-11.667-11.082h-5.541v22.216Z" transform="translate(-811.214 -1.907)" fill="#fff"/>
    <path id="Path_42" data-name="Path 42" d="M10137.183,4357.813h14.225c9.059,0,13.108,5.008,13.108,11.828s-4.05,11.827-13.108,11.827h-7.4v11.188h-6.82Zm14.332,17.368c4.528,0,6.073-2.344,6.073-5.541,0-3.144-1.545-5.488-6.073-5.488H10144v11.028Z" transform="translate(-950.303 -1.907)" fill="#fff"/>
    <path id="Path_43" data-name="Path 43" d="M10257.382,4357.813h14.6c8.845,0,12.734,4.848,12.734,11.508,0,5.487-2.612,9.27-7.3,10.815l8.576,12.521h-8.1l-7.405-11.774h-6.286v11.774h-6.819Zm14.7,16.729c4.316,0,5.755-2.238,5.755-5.221s-1.438-5.168-5.755-5.168h-7.884v10.389Z" transform="translate(-1038.483 -1.907)" fill="#fff"/>
    <path id="Path_44" data-name="Path 44" d="M10375.181,4373.326c0-10.442,7.672-18.114,18.541-18.114s18.54,7.672,18.54,18.114-7.672,18.114-18.54,18.114S10375.181,4383.769,10375.181,4373.326Zm30.154,0c0-6.819-4.687-11.774-11.613-11.774s-11.615,4.955-11.615,11.774,4.688,11.828,11.615,11.828S10405.335,4380.146,10405.335,4373.326Z" transform="translate(-1124.901 0)" fill="#fff"/>
  </g>
</svg>
