<svg version="1.1" id="Warstwa_1" xmlns="http://www.w3.org/2000/svg" xmlns:xlink="http://www.w3.org/1999/xlink" x="0px" y="0px"
	 viewBox="0 0 272.4 214.5" style="enable-background:new 0 0 272.4 214.5;" xml:space="preserve" preserveAspectRatio="xMidYMid meet">
<style type="text/css">
	.st0{fill:none;stroke:#FFFFFF;stroke-width:3;stroke-linecap:round;stroke-linejoin:round;}
	.st1{fill:none;stroke:#FFFFFF;stroke-width:3.214;stroke-linecap:round;stroke-linejoin:round;}
	.st2{opacity:0.6;}
</style>
<g id="Group_3" transform="translate(-488.5 -368.261)">
	<g id="Group_1" transform="translate(359 220.983)">
		<path id="Path_49" class="st0" d="M193.3,181.8c-4,0.3-7.4,0.7-10.3,1.1"/>
		<path id="Path_50" class="st0" d="M178.2,183.7c-10.2,1.9-11.7,4.1-11.7,4.1s3.1,74.2,3.9,97.7s-3.7,74.8,53.9,74.8
			s57.9-34.9,57.9-73.2s5.7-99.2,5.7-99.2s-10.8-7-63.6-7c-11,0-19.9,0.3-27.1,0.8"/>
		<path id="Path_51" class="st0" d="M268.6,228.4c-0.7,0.1-1.4,0.2-2.1,0.3"/>
		<path id="Path_52" class="st0" d="M263.6,229c-17.5,2-48.9,3.8-88-2.4l-1-17.8c0,0,65.6-1.8,104.9,0l-0.8,17.8"/>
		<path id="Path_53" class="st0" d="M172,302"/>
		<path id="Path_54" class="st1" d="M167.9,189.3l7.8,4.3c0,0,4.5,26.2,4,43.8c-0.3,11-3.3,26.4-5.4,40.8"/>
		<path id="Path_55" class="st0" d="M281.3,302"/>
		<path id="Path_56" class="st0" d="M285.4,189.3l-6.8,4.3c0,0-3.9,26.2-3.5,43.8c0.2,11.2,3,27,4.8,41.6"/>
		<path id="Path_57" class="st0" d="M279.6,213.2h2.6c0.3,2.8,0.2,5.6-0.4,8.4H279"/>
		<path id="Path_58" class="st0" d="M174.6,213.2H172c-0.3,2.8-0.2,5.6,0.4,8.4h2.8"/>
		<path id="Path_59" class="st0" d="M225.4,352.4c0.6,0,1.1,0,1.7,0"/>
		<path id="Path_60" class="st0" d="M217.6,351.6c1.1,0.2,2.2,0.4,3.3,0.5"/>
		<path id="Path_61" class="st0" d="M183.4,316.7c0,0,3.5,27.1,30.3,34.1"/>
	</g>
	<g id="Group_2" transform="translate(436 188.983)" class="st2">
		<path id="Path_49-2" class="st0" d="M193.3,181.8c-4,0.3-7.4,0.7-10.3,1.1"/>
		<path id="Path_50-2" class="st0" d="M178.2,183.7c-10.2,1.9-11.7,4.1-11.7,4.1s3.1,74.2,3.9,97.7s-3.7,74.8,53.9,74.8
			s57.9-34.9,57.9-73.2s5.7-99.2,5.7-99.2s-10.8-7-63.6-7c-11,0-19.9,0.3-27.1,0.8"/>
		<path id="Path_51-2" class="st0" d="M268.6,228.4c-0.7,0.1-1.4,0.2-2.1,0.3"/>
		<path id="Path_52-2" class="st0" d="M263.6,229c-17.5,2-48.9,3.8-88-2.4l-1-17.8c0,0,65.6-1.8,104.9,0l-0.8,17.8"/>
		<path id="Path_53-2" class="st0" d="M172,302"/>
		<path id="Path_54-2" class="st1" d="M167.9,189.3l7.8,4.3c0,0,4.5,26.2,4,43.8c-0.3,11-3.3,26.4-5.4,40.8"/>
		<path id="Path_55-2" class="st0" d="M281.3,302"/>
		<path id="Path_56-2" class="st0" d="M285.4,189.3l-6.8,4.3c0,0-3.9,26.2-3.5,43.8c0.2,11.2,3,27,4.8,41.6"/>
		<path id="Path_57-2" class="st0" d="M279.6,213.2h2.6c0.3,2.8,0.2,5.6-0.4,8.4H279"/>
		<path id="Path_58-2" class="st0" d="M174.6,213.2H172c-0.3,2.8-0.2,5.6,0.4,8.4h2.8"/>
		<path id="Path_59-2" class="st0" d="M225.4,352.4c0.6,0,1.1,0,1.7,0"/>
		<path id="Path_60-2" class="st0" d="M217.6,351.6c1.1,0.2,2.2,0.4,3.3,0.5"/>
		<path id="Path_61-2" class="st0" d="M183.4,316.7c0,0,3.5,27.1,30.3,34.1"/>
	</g>
</g>
</svg>
