<svg xmlns="http://www.w3.org/2000/svg" width="272.377" height="214.461" viewBox="0 0 272.377 214.461">
  <g id="Group_4" data-name="Group 4" transform="translate(-452.5 -368.261)">
    <g id="Group_1" data-name="Group 1" transform="translate(394 220.983)">
      <path id="Path_49" data-name="Path 49" d="M169.511,182.6c-3.988.326-7.391.709-10.295,1.12" transform="translate(-11.68 -0.755)" fill="none" stroke="#fff" stroke-linecap="round" stroke-linejoin="round" stroke-width="3"/>
      <path id="Path_50" data-name="Path 50" d="M142.749,183.747c-10.241,1.92-11.749,4.063-11.749,4.063s3.125,74.232,3.907,97.674-3.717,74.754,53.881,74.754,57.859-34.9,57.859-73.191,5.73-99.237,5.73-99.237-10.75-7.033-63.589-7.033c-10.954,0-19.85.3-27.07.781" fill="none" stroke="#fff" stroke-linecap="round" stroke-linejoin="round" stroke-width="3"/>
      <path id="Path_51" data-name="Path 51" d="M303.72,261.964q-1,.139-2.1.28" transform="translate(-70.63 -33.607)" fill="none" stroke="#fff" stroke-linecap="round" stroke-linejoin="round" stroke-width="3"/>
      <path id="Path_52" data-name="Path 52" d="M233.94,248.258c-17.474,2.036-48.859,3.775-87.964-2.366L145,228.115s65.637-1.758,104.9,0l-.781,17.777" transform="translate(-5.795 -19.272)" fill="none" stroke="#fff" stroke-linecap="round" stroke-linejoin="round" stroke-width="3"/>
      <path id="Path_53" data-name="Path 53" d="M140.333,387.667" transform="translate(-3.863 -85.642)" fill="none" stroke="#fff" stroke-linecap="round" stroke-linejoin="round" stroke-width="3"/>
      <path id="Path_54" data-name="Path 54" d="M133.333,195.333l7.848,4.3s4.485,26.176,4.037,43.758c-.28,10.967-3.342,26.4-5.4,40.835" transform="translate(-0.966 -6.025)" fill="none" stroke="#fff" stroke-linecap="round" stroke-linejoin="round" stroke-width="3.214"/>
      <path id="Path_55" data-name="Path 55" d="M326.857,387.667" transform="translate(-81.075 -85.642)" fill="none" stroke="#fff" stroke-linecap="round" stroke-linejoin="round" stroke-width="3"/>
      <path id="Path_56" data-name="Path 56" d="M326.524,195.333l-6.837,4.3s-3.907,26.176-3.516,43.758c.248,11.168,3.01,26.966,4.8,41.625" transform="translate(-76.64 -6.025)" fill="none" stroke="#fff" stroke-linecap="round" stroke-linejoin="round" stroke-width="3"/>
      <path id="Path_57" data-name="Path 57" d="M323.6,236.111h2.6a26.2,26.2,0,0,1-.39,8.4h-2.775" transform="translate(-79.497 -22.905)" fill="none" stroke="#fff" stroke-linecap="round" stroke-linejoin="round" stroke-width="3"/>
      <path id="Path_58" data-name="Path 58" d="M142.91,236.111h-2.6a26.2,26.2,0,0,0,.39,8.4h2.775" transform="translate(-3.78 -22.905)" fill="none" stroke="#fff" stroke-linecap="round" stroke-linejoin="round" stroke-width="3"/>
      <path id="Path_59" data-name="Path 59" d="M231.554,473.626q.852.024,1.727.024" transform="translate(-41.625 -121.225)" fill="none" stroke="#fff" stroke-linecap="round" stroke-linejoin="round" stroke-width="3"/>
      <path id="Path_60" data-name="Path 60" d="M218.231,472.337a32.91,32.91,0,0,0,3.315.459" transform="translate(-36.109 -120.691)" fill="none" stroke="#fff" stroke-linecap="round" stroke-linejoin="round" stroke-width="3"/>
      <path id="Path_61" data-name="Path 61" d="M159.889,412.778s3.51,27.094,30.285,34.065" transform="translate(-11.959 -96.037)" fill="none" stroke="#fff" stroke-linecap="round" stroke-linejoin="round" stroke-width="3"/>
    </g>
    <g id="Group_2" data-name="Group 2" transform="translate(471 188.983)" opacity="0.6">
      <path id="Path_49-2" data-name="Path 49" d="M169.511,182.6c-3.988.326-7.391.709-10.295,1.12" transform="translate(-11.68 -0.755)" fill="none" stroke="#fff" stroke-linecap="round" stroke-linejoin="round" stroke-width="3"/>
      <path id="Path_50-2" data-name="Path 50" d="M142.749,183.747c-10.241,1.92-11.749,4.063-11.749,4.063s3.125,74.232,3.907,97.674-3.717,74.754,53.881,74.754,57.859-34.9,57.859-73.191,5.73-99.237,5.73-99.237-10.75-7.033-63.589-7.033c-10.954,0-19.85.3-27.07.781" fill="none" stroke="#fff" stroke-linecap="round" stroke-linejoin="round" stroke-width="3"/>
      <path id="Path_51-2" data-name="Path 51" d="M303.72,261.964q-1,.139-2.1.28" transform="translate(-70.63 -33.607)" fill="none" stroke="#fff" stroke-linecap="round" stroke-linejoin="round" stroke-width="3"/>
      <path id="Path_52-2" data-name="Path 52" d="M233.94,248.258c-17.474,2.036-48.859,3.775-87.964-2.366L145,228.115s65.637-1.758,104.9,0l-.781,17.777" transform="translate(-5.795 -19.272)" fill="none" stroke="#fff" stroke-linecap="round" stroke-linejoin="round" stroke-width="3"/>
      <path id="Path_53-2" data-name="Path 53" d="M140.333,387.667" transform="translate(-3.863 -85.642)" fill="none" stroke="#fff" stroke-linecap="round" stroke-linejoin="round" stroke-width="3"/>
      <path id="Path_54-2" data-name="Path 54" d="M133.333,195.333l7.848,4.3s4.485,26.176,4.037,43.758c-.28,10.967-3.342,26.4-5.4,40.835" transform="translate(-0.966 -6.025)" fill="none" stroke="#fff" stroke-linecap="round" stroke-linejoin="round" stroke-width="3.214"/>
      <path id="Path_55-2" data-name="Path 55" d="M326.857,387.667" transform="translate(-81.075 -85.642)" fill="none" stroke="#fff" stroke-linecap="round" stroke-linejoin="round" stroke-width="3"/>
      <path id="Path_56-2" data-name="Path 56" d="M326.524,195.333l-6.837,4.3s-3.907,26.176-3.516,43.758c.248,11.168,3.01,26.966,4.8,41.625" transform="translate(-76.64 -6.025)" fill="none" stroke="#fff" stroke-linecap="round" stroke-linejoin="round" stroke-width="3"/>
      <path id="Path_57-2" data-name="Path 57" d="M323.6,236.111h2.6a26.2,26.2,0,0,1-.39,8.4h-2.775" transform="translate(-79.497 -22.905)" fill="none" stroke="#fff" stroke-linecap="round" stroke-linejoin="round" stroke-width="3"/>
      <path id="Path_58-2" data-name="Path 58" d="M142.91,236.111h-2.6a26.2,26.2,0,0,0,.39,8.4h2.775" transform="translate(-3.78 -22.905)" fill="none" stroke="#fff" stroke-linecap="round" stroke-linejoin="round" stroke-width="3"/>
      <path id="Path_59-2" data-name="Path 59" d="M231.554,473.626q.852.024,1.727.024" transform="translate(-41.625 -121.225)" fill="none" stroke="#fff" stroke-linecap="round" stroke-linejoin="round" stroke-width="3"/>
      <path id="Path_60-2" data-name="Path 60" d="M218.231,472.337a32.91,32.91,0,0,0,3.315.459" transform="translate(-36.109 -120.691)" fill="none" stroke="#fff" stroke-linecap="round" stroke-linejoin="round" stroke-width="3"/>
      <path id="Path_61-2" data-name="Path 61" d="M159.889,412.778s3.51,27.094,30.285,34.065" transform="translate(-11.959 -96.037)" fill="none" stroke="#fff" stroke-linecap="round" stroke-linejoin="round" stroke-width="3"/>
    </g>
    <g id="Group_3" data-name="Group 3" transform="translate(323 188.983)" opacity="0.3">
      <path id="Path_49-3" data-name="Path 49" d="M169.511,182.6c-3.988.326-7.391.709-10.295,1.12" transform="translate(-11.68 -0.755)" fill="none" stroke="#fff" stroke-linecap="round" stroke-linejoin="round" stroke-width="3"/>
      <path id="Path_50-3" data-name="Path 50" d="M142.749,183.747c-10.241,1.92-11.749,4.063-11.749,4.063s3.125,74.232,3.907,97.674-3.717,74.754,53.881,74.754,57.859-34.9,57.859-73.191,5.73-99.237,5.73-99.237-10.75-7.033-63.589-7.033c-10.954,0-19.85.3-27.07.781" fill="none" stroke="#fff" stroke-linecap="round" stroke-linejoin="round" stroke-width="3"/>
      <path id="Path_51-3" data-name="Path 51" d="M303.72,261.964q-1,.139-2.1.28" transform="translate(-70.63 -33.607)" fill="none" stroke="#fff" stroke-linecap="round" stroke-linejoin="round" stroke-width="3"/>
      <path id="Path_52-3" data-name="Path 52" d="M233.94,248.258c-17.474,2.036-48.859,3.775-87.964-2.366L145,228.115s65.637-1.758,104.9,0l-.781,17.777" transform="translate(-5.795 -19.272)" fill="none" stroke="#fff" stroke-linecap="round" stroke-linejoin="round" stroke-width="3"/>
      <path id="Path_53-3" data-name="Path 53" d="M140.333,387.667" transform="translate(-3.863 -85.642)" fill="none" stroke="#fff" stroke-linecap="round" stroke-linejoin="round" stroke-width="3"/>
      <path id="Path_54-3" data-name="Path 54" d="M133.333,195.333l7.848,4.3s4.485,26.176,4.037,43.758c-.28,10.967-3.342,26.4-5.4,40.835" transform="translate(-0.966 -6.025)" fill="none" stroke="#fff" stroke-linecap="round" stroke-linejoin="round" stroke-width="3.214"/>
      <path id="Path_55-3" data-name="Path 55" d="M326.857,387.667" transform="translate(-81.075 -85.642)" fill="none" stroke="#fff" stroke-linecap="round" stroke-linejoin="round" stroke-width="3"/>
      <path id="Path_56-3" data-name="Path 56" d="M326.524,195.333l-6.837,4.3s-3.907,26.176-3.516,43.758c.248,11.168,3.01,26.966,4.8,41.625" transform="translate(-76.64 -6.025)" fill="none" stroke="#fff" stroke-linecap="round" stroke-linejoin="round" stroke-width="3"/>
      <path id="Path_57-3" data-name="Path 57" d="M323.6,236.111h2.6a26.2,26.2,0,0,1-.39,8.4h-2.775" transform="translate(-79.497 -22.905)" fill="none" stroke="#fff" stroke-linecap="round" stroke-linejoin="round" stroke-width="3"/>
      <path id="Path_58-3" data-name="Path 58" d="M142.91,236.111h-2.6a26.2,26.2,0,0,0,.39,8.4h2.775" transform="translate(-3.78 -22.905)" fill="none" stroke="#fff" stroke-linecap="round" stroke-linejoin="round" stroke-width="3"/>
      <path id="Path_59-3" data-name="Path 59" d="M231.554,473.626q.852.024,1.727.024" transform="translate(-41.625 -121.225)" fill="none" stroke="#fff" stroke-linecap="round" stroke-linejoin="round" stroke-width="3"/>
      <path id="Path_60-3" data-name="Path 60" d="M218.231,472.337a32.91,32.91,0,0,0,3.315.459" transform="translate(-36.109 -120.691)" fill="none" stroke="#fff" stroke-linecap="round" stroke-linejoin="round" stroke-width="3"/>
      <path id="Path_61-3" data-name="Path 61" d="M159.889,412.778s3.51,27.094,30.285,34.065" transform="translate(-11.959 -96.037)" fill="none" stroke="#fff" stroke-linecap="round" stroke-linejoin="round" stroke-width="3"/>
    </g>
  </g>
</svg>
